<?xml version="1.0" encoding="utf-8"?>
<!-- Generator: Adobe Illustrator 14.0.0, SVG Export Plug-In . SVG Version: 6.00 Build 43363)  -->
<!DOCTYPE svg PUBLIC "-//W3C//DTD SVG 1.1//EN" "http://www.w3.org/Graphics/SVG/1.1/DTD/svg11.dtd">
<svg version="1.1" id="Calque_1" xmlns="http://www.w3.org/2000/svg" xmlns:xlink="http://www.w3.org/1999/xlink" x="0px" y="0px"
	 width="1024px" height="768px" viewBox="0 0 1024 768" enable-background="new 0 0 1024 768" xml:space="preserve">
<rect x="1861.945" y="-494.36" fill="none" stroke="#CECECD" width="1024" height="59.077"/>
<rect x="1861.945" y="-435.283" fill="none" stroke="#CECECD" width="1024" height="59.077"/>
<rect x="1861.945" y="-376.206" fill="none" stroke="#CECECD" width="1024" height="59.077"/>
<rect x="1861.945" y="-317.129" fill="none" stroke="#CECECD" width="1024" height="59.077"/>
<rect x="1861.945" y="-258.052" fill="none" stroke="#CECECD" width="1024" height="59.077"/>
<rect x="1861.945" y="-198.975" fill="none" stroke="#CECECD" width="1024" height="59.077"/>
<rect x="1861.945" y="-139.898" fill="none" stroke="#CECECD" width="1024" height="59.077"/>
<rect x="1861.945" y="-80.821" fill="none" stroke="#CECECD" width="1024" height="59.077"/>
<rect x="1861.945" y="-21.744" fill="none" stroke="#CECECD" width="1024" height="59.076"/>
<rect x="1861.945" y="37.332" fill="none" stroke="#CECECD" width="1024" height="59.078"/>
<rect x="1861.945" y="96.41" fill="none" stroke="#CECECD" width="1024" height="59.077"/>
<rect x="1861.945" y="155.487" fill="none" stroke="#CECECD" width="1024" height="59.076"/>
<rect x="1861.945" y="214.563" fill="none" stroke="#CECECD" width="1024" height="59.077"/>
<g>
	<path fill="none" stroke="#CECECD" d="M588.982-700.804c0,0-39.877-2.099-44.074,29.383c-4.198,31.48,65.061,167.9,142.714,109.135
		c77.655-58.765,16.791-107.036,0-115.431C670.833-686.112,612.969-704.987,588.982-700.804z"/>
	<path fill="none" stroke="#CECECD" d="M673.981-639.94c-11.18-10.16-34.629-25.185-56.667-20.987
		c-22.037,4.198-1.502,57.716,18.138,64.012S700.939-615.44,673.981-639.94z"/>
	<path fill="none" stroke="#CECECD" d="M595.989-713.269c-14.943-3.019-40.924-12.592-59.812,11.868
		c-14.594,18.899-17.53,55.812,8.549,95.162c26.079,39.351,87.464,120.109,169.311,58.48c81.847-61.628,22.036-123.014,0-134.031
		C692.002-692.808,625.928-707.221,595.989-713.269z"/>
	<path fill="none" stroke="#CECECD" d="M635.453-717.658c-28.972-13.972-77.238-56.997-122.884-38.108
		c-45.646,18.888-70.83,136.937-14.166,182.582c56.664,45.645,230.717,169.018,289.613,18.888
		c26.752-68.195,4.073-97.664-32.192-127.493C733.933-699.794,669.327-701.321,635.453-717.658z"/>
	<path fill="none" stroke="#CECECD" d="M493.681-784.098c88.143-20.462,116.173,50.701,188.576,66.44
		c72.403,15.74,186.032,24.652,200.197,96.369c14.166,71.715-127.561,313.698-357.329,139.191
		C295.358-656.605,412.829-765.328,493.681-784.098z"/>
	<path fill="none" stroke="#CECECD" d="M489.636-793.385c91.905-21.335,123.231,50.766,198.725,67.177
		c75.494,16.412,189.775,29.902,204.545,104.68c14.771,74.776-135.105,330.237-374.68,148.281S405.333-773.814,489.636-793.385z"/>
	<path fill="none" stroke="#CECECD" d="M407.112-832.5c0,0-152.676,43.034-103.883,170.85
		c48.793,127.816,269.152,421.356,528.859,241.532c259.707-179.823,90.585-250.653,61.82-264.819
		c-28.767-14.165-150.835-30.022-211.65-69.255c-20.5-13.224-86.268-78.308-86.268-78.308"/>
</g>
<g>
	<path fill="none" stroke="#CECECD" d="M88.032-306.449c-1.334-41.924,23.839-110.375,115.621-121.581
		c117.683-14.368,181.179,37.574,205.018,83.749c23.84,46.175-0.98,132.01-69.134,146.3
		C265.634-182.485,90.958-214.59,88.032-306.449z"/>
	<path fill="none" stroke="#CECECD" d="M313.764-399.472c-38.499-6.703-149.864-13.334-167.565,37.407
		c-17.7,50.742,28.763,127.444,109.964,130.984s153.498-26.818,149.644-84.518C403.475-350.517,372.915-389.175,313.764-399.472z"/>
	<path fill="none" stroke="#CECECD" d="M370.965-364.098c-23.297-17.794-62.487-39.534-114.005-22.189s-73.975,59.616-51.518,88.678
		c22.457,29.062,131.455,63.699,167.285,19.814C400.946-312.356,396.403-344.668,370.965-364.098z"/>
	<path fill="none" stroke="#CECECD" d="M363.534-357.053c-12.234-9.62-39.204-26.419-59.019-19.814
		c-19.815,6.604-25.098,25.788-36.987,34.69c-11.889,8.902-35.173,26.19-24.852,35.379c10.321,9.189,88.934,29.256,116.089,7.903
		C392.023-325.047,382.453-342.177,363.534-357.053z"/>
	<path fill="none" stroke="#CECECD" d="M326.972-324.802c0,0-7.926-24.956-25.099-17.375c-17.173,7.581-17.173,35.437,0,35.379
		S332.879-313.537,326.972-324.802z"/>
</g>
<path fill="none" stroke="#CECECD" d="M725.161-297.601c-19.282-15.622-55.243-39.356-97.533-18.448s-45.979,33.836-31.221,40.286
	c14.759,6.45,148.818,38.563,156.198,24.352C759.984-265.623,735.597-289.145,725.161-297.601z"/>
<path fill="none" stroke="#CECECD" d="M705.869-291.451c0,0-26.714-22.895-41.03-14.522c-14.315,8.373-8.166,24.99,12.742,30.21
	C698.489-270.543,724.388-279.299,705.869-291.451z"/>
<path fill="none" stroke="#CECECD" d="M143.702,0c0,0-59.998,26.584-41.998,80.581S55.788,176.576,0,124.079"/>
<path fill="none" stroke="#CECECD" d="M104.135,107.205c0,0,80.9,111.369,147.562,61.872
	c65.275-48.468-44.869-83.598-58.497-101.995C163.201,26.584,191.301,0,191.301,0"/>
<path fill="none" stroke="#CECECD" d="M238.854,95.968c0,0-5.156-27.387,18.842-34.886S346.192,52.912,344.692,0"/>
<path fill="none" stroke="#CECECD" d="M61.207,148.153c0,0-38.998,59.923,0,101.92s44.865,67.203,52.497,86.995
	c12.603,32.682,48.913,53.997,77.704,13.499s67.79-80.994,55.79-119.993s-23.683-49.482-23.683-49.482"/>
<path fill="none" stroke="#CECECD" d="M191.407,178.336c0,0-0.73,40.603-29.706,68.737c-57.566,55.896-100.495,3-100.495,3"/>
<path fill="none" stroke="#CECECD" d="M46.984,181.758c0,0-27.195-26.317-46.984,0"/>
<path fill="none" stroke="#CECECD" d="M65.179,254.238c0,0,25.241,37.7-10.179,39.609c-30.877,1.664-9.292-40.776-27.292-42.275
	S0,293.848,0,293.848"/>
<path fill="none" stroke="#CECECD" d="M245.136,268.188c0,0,35.364-45.188,110.056-61.612c69.286-15.236-13.499-58.497,0-79.496
	s43.498,3.144,61.497-36.2C446.957,24.716,377.69,0,377.69,0"/>
<path fill="none" stroke="#CECECD" d="M0,325.069c0,0,38.708-14.999,61.207,19.499s81.572,77.484,126.967,47.997
	c30.525-19.828,28.825-34.719,21.525-38.998c-14.844-8.701-28.896,8.959-28.896,8.959"/>
<path fill="none" stroke="#CECECD" d="M344.718,209.13c0,0,56.97-12.647,92.969,16.397s-38.998,15.469-41.998,26.007
	s70.497,0.331,85.496,21.184s-37.188,11.853-56.842,13.353s24.617,14.434,45.324,26.93c38.667,23.333,71.515,51.936,58.016,71
	s-60.553-13.933-90.273-43.932s-46.22-43.499-49.22-34.499s52.808,51.587,36.153,56.542s-60.099-41.657-79.625-64.099
	s-53.84-23.713-85.218,0c-21.471,16.226-36.979,55.274-50.198,76.097"/>
<path fill="none" stroke="#CECECD" d="M0,353.567c0,0,34.208-11.131,61.207,30.433s109.66,83.562,151.575,26.564
	S267.245,320.637,288,317c41.805-7.324,37,25,63.5,23.5c17.442-0.987,14.48-18.661,3.849-30.574"/>
<path fill="none" stroke="#CECECD" d="M530.686,372.737c0,0,29.995-71.668,52.494-91.167s14.999-19.266,0-13.383
	s-59.997,15.615-44.998-3.5s50.898-30.706,59.197-39.16s-54.522,9.954-66.609,0s22.367-30.785,33.639-49.618
	s-57.725-27.832-77.224-51.831s-14.836-52.269-74.165-98.131"/>
<path fill="none" stroke="#CECECD" d="M481.846,116.528c0,0-0.661-46.447,42.837-52.447s74.997,19.499,101.995,0
	S664.176,0,664.176,0"/>
<path fill="none" stroke="#CECECD" d="M558.529,315.701c0,0,24.651-32.337,75.648-42.983s101.995-58.123,79.496-94.382
	s-79.497-17.728-94.496-44.242s-4.304-61.142-60.649-69.327"/>
<path fill="none" stroke="#CECECD" d="M619.178,134.094c0,0,62.998,7.883,86.996-17.565s-43.499-51.643-28.499-68.544
	S733.172,33.414,728.673,0"/>
<path fill="none" stroke="#CECECD" d="M358.271,338.879c0,0,140.913,161.681,230.909,77.685
	c61.257-57.174-5.871-122.668-5.871-122.668"/>
<path fill="none" stroke="#CECECD" d="M252.858,351.841c0,0-22.838,34.724,0,43.724s30.337-26.411,46.836-21.455
	s-15,30.455,0,45.454s31.551-26.832,45.024-17.166s-8.866,35.166,13.553,44.165s48.081-1.5,54.749-20.999
	s-3.676-37.337-18.984-51.454"/>
<path fill="none" stroke="#CECECD" d="M602.838,400.83c0,0,133.334,24.732,154.333-63.763s-51.065-107.366-51.065-107.366"/>
<path fill="none" stroke="#CECECD" d="M404.847,438.294c0,0,135.683,86.265,241.33,45.767
	c96.475-36.982,42.132-84.915,42.132-84.915"/>
<path fill="none" stroke="#CECECD" d="M681.923,156.478c0,0,121.747,35.25,154.745-8.324s-4.5-77.268,0-100.169S868.166,0,868.166,0
	"/>
<path fill="none" stroke="#CECECD" d="M729.02,241.2c0,0,50.65,34.295,86.649,10.334s49.291-98.203-7.603-85.831"/>
<polyline fill="none" stroke="#CECECD" points="27,834.953 587,1192 217,834.953 "/>
<polygon fill="none" stroke="#CECECD" points="0,1057 587,1192 253,1295 "/>
<polyline fill="none" stroke="#CECECD" points="0,1257 253,1295 0,1457 "/>
<polyline fill="none" stroke="#CECECD" points="0,1602.953 253,1295 127,1602.953 587,1192 307,1602.953 "/>
<polyline fill="none" stroke="#CECECD" points="671,1602.953 587,1192 731,1602.953 "/>
<polyline fill="none" stroke="#CECECD" points="1024,834.953 587,1192 755,834.953 "/>
<polyline fill="none" stroke="#CECECD" points="1024,1020.977 587,1192 1024,905 "/>
<polyline fill="none" stroke="#CECECD" points="1024,1293 587,1192 1024,1483 "/>
<path fill="none" stroke="#CECECD" d="M212.782,410.564C181.978,447.012,191,549,307,515s120-37.25,140,5.375
	s109.841,52.815,126.011-25.498"/>
<path fill="none" stroke="#CECECD" d="M0,463c0,0,117.358,13.212,93.242-47.277"/>
<path fill="none" stroke="#CECECD" d="M87.519,449.82c0,0-39.481,69.18,0,59.18S155,486.977,161,509.988s40.747,76.58,68,69.012
	c43.213-12,20.427-58.355,20.427-58.355"/>
<path fill="none" stroke="#CECECD" d="M0,514.773c0,0,50.037,48.227,87.519-5.773"/>
<path fill="none" stroke="#CECECD" d="M48.254,534.594c0,0-39.357,31.859-11.306,45.133s54.321-42.406,67.187-22.566
	s-0.606,44.574,22.172,55.84c36.394,18,55.671-16.377,71.308-45.973"/>
<path fill="none" stroke="#CECECD" d="M36.948,579.727c0,0-36.948,15.234-36.948,38.254"/>
<path fill="none" stroke="#CECECD" d="M126.307,613c0,0,15.169,30-14.069,46s-34.201,50-24.719,70s23.957,20,24.719,39"/>
<path fill="none" stroke="#CECECD" d="M229,579c0,0,81.008,96.965-40.826,189"/>
<path fill="none" stroke="#CECECD" d="M245.136,701.479c0,0,125.937,7.521,124.9-50.479s-6.411-68,15.276-72S465,561.75,447,520.375
	"/>
<path fill="none" stroke="#CECECD" d="M281,701.799c0,0,74.543-2.799,77.271,23.201s-13.553,43-13.553,43"/>
<path fill="none" stroke="#CECECD" d="M358.271,734.855c0,0,108.729,19.855,136.729,0S521,686,495,673.5s-68.472-6.5-58.236-28.5
	s34.401-87.672-21.682-73.836"/>
<path fill="none" stroke="#CECECD" d="M450.414,611.087c0,0,67.881,15.224,89.233-66.432"/>
<path fill="none" stroke="#CECECD" d="M512,715.76c0,0,85.265-26.76,86.132,52.24"/>
<path fill="none" stroke="#CECECD" d="M573.011,717.987c0,0,57.657,18.013,65.823-27.487s-19.569-77.326-40.702-79.413
	s-94.02,72.949-161.368,45.387"/>
<path fill="none" stroke="#CECECD" d="M630.995,488.979c0,0,51.851-4.386,50.928,32.817s-44.329,13.525-41.626,31.364
	s20.968,62.013-42.165,57.926"/>
<path fill="none" stroke="#CECECD" d="M644.528,576.287c0,0,199.939-71.58,202.206,22.566S745.631,768,745.631,768"/>
<path fill="none" stroke="#CECECD" d="M1024,690.5c0,0-15-128.047-87-110.773S861,656,879,690.5s2,77.5-48,77.5"/>
<path fill="none" stroke="#CECECD" d="M822.07,558.888c0,0,24.93-36.7,70.93-24.294s51.431,43.839,51.431,43.839"/>
<path fill="none" stroke="#CECECD" d="M1026,580.727c0,0-15-191.091-127-181.581c-78.105,6.632-46,69.608-68,95.731
	s-82.701,16.596-85.351,57.359"/>
<path fill="none" stroke="#CECECD" d="M674.099,500.725c0,0,103.994-95.998,163.448-18.861"/>
<path fill="none" stroke="#CECECD" d="M736.89,374.109c0,0,67.11-69.109,68.61-43.109s-15.5,60,0,53S871,303.303,909,325.151
	s35.431,82.595,35.431,82.595"/>
<path fill="none" stroke="#CECECD" d="M1026,343c0,0-23-91.625-65-74.813s-41.785,64.586-41.785,64.586"/>
<path fill="none" stroke="#CECECD" d="M1026,304.563c0,0-50.57-112.509-106.785-79.036S849.7,343,849.7,343"/>
<path fill="none" stroke="#CECECD" d="M846.771,199.342c0,0,46.659-89.848,72.444-64.095s35.328,56.75,0,90.28"/>
<path fill="none" stroke="#CECECD" d="M944.467,0c0,0-32.252,90.057,28.14,116.528S1026,185.025,1026,185.025"/>
<g>
	<g id="XMLID_1_">
		<g>
			<polygon fill="#96CEB7" points="256.26,2099.05 130.26,2407 3.26,2407 			"/>
			<polygon points="590.26,1996.05 130.26,2407 256.26,2099.05 			"/>
			<polygon fill="#E96132" points="1027.26,1639 590.26,1996.05 758.26,1639 			"/>
			<polygon fill="#FFEC66" points="758.26,1639 590.26,1996.05 220.26,1639 			"/>
			<polygon fill="#96CEB7" points="590.26,1996.05 256.26,2099.05 3.26,1861.05 			"/>
			<polygon fill="#F8B227" points="590.26,1996.05 30.26,1639 220.26,1639 			"/>
			<polygon fill="#F2942E" points="256.26,2099.05 3.26,2261.05 3.26,2061.05 			"/>
		</g>
		<g>
			<polygon fill="none" stroke="#CECECD" points="256.26,2099.05 3.26,1861.05 590.26,1996.05 			"/>
			<polygon fill="none" stroke="#CECECD" points="3.26,2261.05 256.26,2099.05 3.26,2061.05 			"/>
			<polyline fill="none" stroke="#CECECD" points="310.26,2407 590.26,1996.05 130.26,2407 256.26,2099.05 3.26,2407 			"/>
			<polyline fill="none" stroke="#CECECD" points="674.26,2407 590.26,1996.05 734.26,2407 			"/>
			<polyline fill="none" stroke="#CECECD" points="1027.26,1639 590.26,1996.05 758.26,1639 			"/>
			<polyline fill="none" stroke="#CECECD" points="1027.26,1825.02 590.26,1996.05 1027.26,1709.05 			"/>
			<polyline fill="none" stroke="#CECECD" points="1027.26,2097.05 590.26,1996.05 1027.26,2287.05 			"/>
			<polyline fill="none" stroke="#CECECD" points="220.26,1639 758.26,1639 1027.26,1639 1027.26,1709.05 1027.26,1825.02 
				1027.26,2097.05 1027.26,2287.05 1027.26,2407 734.26,2407 674.26,2407 310.26,2407 130.26,2407 3.26,2407 0,2407 0,1639 
				30.26,1639 			"/>
		</g>
	</g>
</g>
<g>
	<g id="XMLID_2_">
		<g>
			<path fill="#A4C6AC" d="M356.19,2769.25c8.95,10.04,12.46,24.16,2.92,28.96c-1.78,0.89-4.02,1.46-6.77,1.62
				c-26.49,1.5-21.69-30.83-63.47-23.5c-12.03,2.1-21.3,14.05-35.12,34.84c0,0-0.01,0.021-0.03,0.04c-0.05,0.07-0.11,0.15-0.15,0.23
				c-10,15.029-22.38,34.64-39.88,58.449c-0.83,0.99-1.64,2.021-2.4,3.101c-30.89,37.97-81.51,26.689-117.08,2.069v-0.01
				c-13.45-9.31-24.76-20.53-32.02-31.72c-26.99-41.57-61.18-30.44-61.18-30.44V2784.4c0,0,38.69-15,61.18,19.489
				c22.49,34.5,81.53,77.49,126.9,48c10.48-6.81,17.16-13.04,21.12-18.449c0.01-0.011,0.02-0.03,0.02-0.04
				c1.25-1.71,2.22-3.33,2.95-4.86c12.56-21.57,27.32-56.18,47.2-71.2c31.37-23.71,65.66-22.439,85.18,0
				C348.59,2760.82,352.19,2764.89,356.19,2769.25z"/>
			<path fill="#169738" d="M838.15,2941.19c-1.42,4.899-3.44,9.319-6.55,13.01c-21.98,26.109-82.58,16.609-85.3,57.28
				c-50.54,6.029-101.08,24.13-101.08,24.13c-0.84-8.78-3.35-17.33-4.23-23.12c-2.7-17.84,40.69,5.84,41.61-31.37
				c0.23-9.47-2.95-16.24-7.82-21.07C674.78,2960.05,778.72,2864.05,838.15,2941.19z"/>
			<path fill="#D5D828" d="M688.99,2858.48c-41.43,9.85-85.44,1.68-85.44,1.68c35.94-52.8-19.52-106.94-19.52-106.94
				c12.28-8.21,29.18-16.66,50.85-21.18c28.04-5.85,56.08-22.86,71.89-43.01c0,0,10.85,2.84,22.9,11.5c0,0,0.06,0.04,0.18,0.12
				c18.96,13.689,40.76,41.77,27.96,95.739c-3.55,14.96-10.3,26.69-19.08,35.841c-0.07,0.069-0.14,0.14-0.21,0.22
				c-0.17,0.16-0.32,0.31-0.44,0.439c-0.35,0.36-0.54,0.551-0.54,0.551C724.36,2846.58,706.92,2854.22,688.99,2858.48z"/>
			<path fill="#F7BFBB" d="M714.33,2637.66c10.12,16.31,5.37,34.89-7.56,51.37c-15.81,20.149-43.85,37.16-71.89,43.01
				c-21.67,4.52-38.57,12.97-50.85,21.18c-16.62,11.12-24.76,21.811-24.76,21.811c8.06-14.221,16.8-27.34,24.63-34.13
				c22.49-19.5,15-19.271,0-13.391c-14.99,5.891-59.96,15.62-44.97-3.5c14.99-19.109,50.87-30.7,59.17-39.16
				c8.29-8.449-54.5,9.96-66.58,0c-12.08-9.949,22.36-30.779,33.62-49.609c11.27-18.84-57.69-27.84-77.18-51.84
				c-2-2.471-3.75-4.98-5.34-7.551c0,0-0.66-46.439,42.82-52.439c12.16-1.68,23.38-0.891,33.83,0.68c1.29,0.2,2.58,0.41,3.85,0.62
				c0.42,0.07,0.83,0.15,1.23,0.22c50.59,9.511,41.01,42.811,55.53,68.49c9.92,17.53,38.2,15.36,62.72,22.38
				c0,0,0.18,0.05,0.53,0.15c0.01,0,0.01,0,0.01,0C695.48,2619.56,706.83,2625.56,714.33,2637.66z"/>
			<path fill="#FFE9B8" d="M584.03,2753.22c0,0,55.46,54.141,19.52,106.94c-3.59,5.28-8.09,10.54-13.65,15.729
				c-61.7,57.62-147.34-0.359-195.05-42.449c-21.85-19.28-35.74-35.23-35.74-35.23c9.54-4.8,6.03-18.92-2.92-28.96
				c21.72,23.75,54.89,56.37,68.96,52.19c16.64-4.96-39.14-47.54-36.14-56.54s19.49,4.5,49.2,34.489c29.7,30,76.73,63,90.22,43.94
				c2.46-3.47,3.38-7.26,3.01-11.271c0,0,12.73-30.43,27.83-57.029C559.27,2775.03,567.41,2764.34,584.03,2753.22z"/>
			<path fill="#F0D5E5" d="M531.52,2684.85c12.08,9.96,74.87-8.449,66.58,0c-8.3,8.46-44.18,20.051-59.17,39.16
				c-14.99,19.12,29.98,9.391,44.97,3.5c15-5.88,22.49-6.109,0,13.391c-7.83,6.79-16.57,19.909-24.63,34.13
				c-15.1,26.6-27.83,57.029-27.83,57.029c-1.65-18.029-29.38-40.649-60.99-59.729c-20.7-12.5-64.95-25.43-45.3-26.93
				c19.64-1.5,71.8,7.5,56.81-13.36c-14.99-20.85-88.45-10.64-85.45-21.18c2.99-10.54,77.95,3.04,41.97-26.011
				c-35.98-29.04-92.92-16.39-92.92-16.39v-0.01c3.4-0.91,6.89-1.76,10.47-2.55c69.25-15.23-13.49-58.5,0-79.49
				c13.49-21,43.47,3.14,61.46-36.2c13.39-29.28,7.3-50.44-3.65-64.94c53.19,41.16,54.91,68.141,68.78,90.58
				c1.59,2.57,3.34,5.08,5.34,7.551c19.49,24,88.45,33,77.18,51.84C553.88,2654.07,519.44,2674.9,531.52,2684.85z"/>
			<path fill="#84BD67" d="M531.44,2832.06c0.37,4.011-0.55,7.801-3.01,11.271c-13.49,19.06-60.52-13.94-90.22-43.94
				c-29.71-29.989-46.2-43.489-49.2-34.489s52.78,51.58,36.14,56.54c-14.07,4.18-47.24-28.44-68.96-52.19
				c-4-4.36-7.6-8.43-10.63-11.91c-19.52-22.439-53.81-23.71-85.18,0c-19.88,15.021-34.64,49.63-47.2,71.2
				c3.74-7.78,1.42-13.31-2.57-15.65c-9.43-5.529-18.54-0.42-23.92,4.051c1.9-2.101,3.78-4.45,5.63-7.051
				c19.62-27.609,44-55.229,53.71-82.38c0,0,32.03-40.95,99.53-59.06v0.01c0,0,56.94-12.65,92.92,16.39
				c35.98,29.051-38.98,15.471-41.97,26.011c-3,10.54,70.46,0.33,85.45,21.18c14.99,20.86-37.17,11.86-56.81,13.36
				c-19.65,1.5,24.6,14.43,45.3,26.93C502.06,2791.41,529.79,2814.03,531.44,2832.06z"/>
			<path fill="#E2E2E2" d="M161.93,2969.31c3.79,14.53,19.03,41.23,36.6,57.04c-15.63,29.601-34.9,63.98-71.27,45.98
				c-22.77-11.271-9.31-36-22.17-55.84c-12.85-19.84-39.11,35.84-67.15,22.56c-28.04-13.27,11.3-45.13,11.3-45.13l-0.01-0.1
				c12.94-0.88,26.79-7.521,39.26-25.49C127.95,2958.33,155.94,2946.3,161.93,2969.31z"/>
		</g>
		<g>
			<path fill="none" stroke="#CECECD" d="M144.64,2459.33c0,0-59.97,26.58-41.97,80.58c3.13,9.38,3.78,18.399,2.43,26.63
				c-3.51,21.45-20.63,37.49-42.97,40.45c-18.39,2.43-40.32-4-61.12-23.58"/>
			<path fill="none" stroke="#CECECD" d="M105.09,2566.53c0,0,0,0,0.01,0.01c0.72,0.99,40.68,55.57,87.36,70.69
				c10.44,3.39,21.21,4.8,31.96,3.18c9.49-1.41,18.96-5.18,28.16-12.01c39.59-29.4,14.64-53.891-14.16-72.721
				c-18.66-12.21-38.94-22.029-44.3-29.27c-29.99-40.5-1.9-67.08-1.9-67.08"/>
			<path fill="none" stroke="#CECECD" d="M239.75,2555.29c0,0,0-0.01-0.01-0.03c-0.17-0.99-4.7-27.49,18.84-34.85
				c23.99-7.5,88.45-8.17,86.95-61.08"/>
			<path fill="none" stroke="#CECECD" d="M64.74,2712.18c0.62,0.681,1.24,1.36,1.83,2.03c35.06,39.14,40.76,63.16,48.09,82.18
				c11.09,28.78,40.54,48.73,67.06,25.46c1.67-1.449,3.33-3.09,4.97-4.909c1.9-2.101,3.78-4.45,5.63-7.051
				c19.62-27.609,44-55.229,53.71-82.38c4.53-12.66,5.87-25.21,2.06-37.609c-12-39-23.67-49.48-23.67-49.48"/>
			<path fill="none" stroke="#CECECD" d="M62.31,2709.54c0.72,0.77,1.42,1.53,2.09,2.28"/>
			<path fill="none" stroke="#CECECD" d="M62.19,2607.48c0,0-9.23,14.189-14.21,33.6c-5.27,20.479-5.8,46.76,14.21,68.32"/>
			<path fill="none" stroke="#CECECD" d="M66.16,2713.56c-0.52-0.489-0.99-0.96-1.42-1.38c-0.12-0.12-0.23-0.239-0.34-0.359
				c-1.12-1.141-1.82-1.96-2.09-2.28c-0.08-0.09-0.12-0.14-0.12-0.14"/>
			<path fill="none" stroke="#CECECD" d="M192.32,2637.66c0,0-0.73,40.6-29.69,68.74c-47.23,45.88-84.6,18.46-96.47,7.17"/>
			<path fill="none" stroke="#CECECD" d="M47.97,2641.08c0,0-27.18-26.311-46.96,0"/>
			<path fill="none" stroke="#CECECD" d="M66.16,2713.56c0,0,0,0,0,0.011c0.04,0.05,0.19,0.27,0.41,0.64
				c3.15,5,22.07,37.2-10.59,38.96c-30.86,1.67-9.28-40.77-27.27-42.27c-17.99-1.5-27.7,42.27-27.7,42.27"/>
			<path fill="none" stroke="#CECECD" d="M210.23,2833.4c1.25-1.71,2.22-3.33,2.95-4.86c3.74-7.78,1.42-13.31-2.57-15.65
				c-9.43-5.529-18.54-0.42-23.92,4.051c-3.1,2.56-4.97,4.909-4.97,4.909"/>
			<path fill="none" stroke="#CECECD" d="M1.01,2784.4c0,0,38.69-15,61.18,19.489c22.49,34.5,81.53,77.49,126.9,48
				c10.48-6.81,17.16-13.04,21.12-18.449"/>
			<path fill="none" stroke="#CECECD" d="M619.88,2593.42c0,0,62.97,7.88,86.96-17.57c23.98-25.439-43.48-51.64-28.49-68.54
				c15-16.899,55.47-14.569,50.98-47.979"/>
			<path fill="none" stroke="#CECECD" d="M253.72,2811.21c-0.03,0.05-0.08,0.13-0.15,0.23c-2.07,3.279-21.46,34.92,0.18,43.449
				c22.82,9,30.32-26.409,46.81-21.449c16.49,4.949-14.99,30.449,0,45.449c14.99,15,31.53-26.83,45-17.17
				c13.47,9.67-8.86,35.17,13.55,44.17c16.82,6.761,35.47,2.521,46.54-8.279c3.68-3.561,6.52-7.86,8.18-12.721
				c6.66-19.5-3.68-37.34-18.98-51.449"/>
			<path fill="none" stroke="#CECECD" d="M405.66,2897.62c0,0,81.98,52.14,168.09,56.32c19.41,0.939,39.02-0.561,57.95-5.631
				c5.11-1.369,10.18-3,15.17-4.92c95.63-36.68,43-84.13,42.12-84.909c-0.01-0.011-0.01-0.011-0.01-0.011"/>
			<path fill="none" stroke="#CECECD" d="M683.14,2615.95c6.98,1.96,79.85,21.81,125.54,9.069c11.94-3.319,22.02-8.869,28.59-17.539
				c32.98-43.57-4.5-77.271,0-100.171c4.49-22.899,31.48-47.979,31.48-47.979"/>
			<path fill="none" stroke="#CECECD" d="M682.6,2615.8c0,0,0.18,0.05,0.53,0.15"/>
			<path fill="none" stroke="#CECECD" d="M729.85,2700.65c3.32,2.189,51.7,33.34,86.43,10.21c16.72-11.13,28.54-33.12,30.7-52.24
				c2.48-22.021-7.86-40.21-38.3-33.59"/>
			<path fill="none" stroke="#CECECD" d="M213.69,2869.89c-0.83,0.99-1.64,2.021-2.4,3.101c-22.07,30.75-19.34,97.3,39.04,106.99
				c15.21,2.529,34.21,1.189,57.53-5.65c115.94-34,119.94-37.25,139.93,5.37c13.61,29.01,59.55,43,92.6,24.28
				c15.52-8.78,28.19-24.761,33.35-49.78"/>
			<path fill="none" stroke="#CECECD" d="M1.01,2922.33c0,0,63.51,7.15,87.46-13.17c8.6-7.29,12.11-18.12,5.74-34.101"/>
			<path fill="none" stroke="#CECECD" d="M88.49,2909.15c0,0,0,0.01-0.01,0.02c-0.8,1.41-39.05,69.061,0.01,59.16
				c39.46-10,67.45-22.03,73.44,0.979c3.79,14.53,19.03,41.23,36.6,57.04c10.27,9.25,21.33,14.771,31.37,11.98
				c42.81-11.89,20.81-57.55,20.43-58.35c-0.01-0.011-0.01-0.011-0.01-0.011"/>
			<path fill="none" stroke="#CECECD" d="M1.01,2974.1c0,0,22.27,21.48,48.22,19.721c12.94-0.88,26.79-7.521,39.26-25.49"/>
			<path fill="none" stroke="#CECECD" d="M37.94,3039.05c0,0-36.93,15.24-36.93,38.26"/>
			<path fill="none" stroke="#CECECD" d="M127.26,3072.33c0,0,15.16,30-14.07,46c-29.22,16-34.18,50-24.7,70
				c9.47,20,23.94,20,24.7,39"/>
			<path fill="none" stroke="#CECECD" d="M229.9,3038.33c0,0,46.39,55.55,16.13,122.479c-9.72,21.48-27.34,44.15-56.94,66.521"/>
			<path fill="none" stroke="#CECECD" d="M415.91,3030.49c22.21-8.19,43.84-23.271,31.88-50.79"/>
			<path fill="none" stroke="#CECECD" d="M246.03,3160.81c0,0,15.61,0.931,35.8-0.39c37.12-2.439,89.71-12.52,89.04-50.09
				c-1.04-58-6.41-68,15.26-72c7.26-1.34,18.58-3.72,29.76-7.84"/>
			<path fill="none" stroke="#CECECD" d="M281.87,3161.12c0,0,74.51-2.79,77.24,23.21c0.36,3.46,0.39,6.76,0.16,9.88
				c-1.48,20.34-13.71,33.12-13.71,33.12"/>
			<path fill="none" stroke="#CECECD" d="M359.11,3194.18c0,0,0.05,0.011,0.16,0.03c4.6,0.83,109.13,19.39,136.5-0.03
				c8.17-5.79,13.78-12.37,16.99-19.09c7.78-16.29,1.4-33.41-16.99-42.26c-19.58-9.42-48.5-8.34-57.2-16.63
				c-2.85-2.72-3.53-6.44-1.01-11.87c3.62-7.78,8.98-21.03,11.92-34.29c5.36-24.22,2.63-48.49-33.57-39.55c-0.01,0-0.01,0-0.02,0"/>
			<path fill="none" stroke="#CECECD" d="M451.2,3070.41c0,0,67.85,15.229,89.19-66.43"/>
			<path fill="none" stroke="#CECECD" d="M512.76,3175.09c0,0,35.57-11.17,60.98,2.23c13.93,7.34,24.8,22.05,25.11,50.01"/>
			<path fill="none" stroke="#CECECD" d="M573.74,3177.31c0,0,57.63,18.021,65.79-27.479c8.16-45.5-19.56-77.33-40.68-79.42
				c-21.01-2.07-93.24,72.2-160.28,45.79c-0.34-0.13-0.67-0.26-1.01-0.4"/>
			<path fill="none" stroke="#CECECD" d="M631.7,2948.31c0,0,28.8-2.439,43.08,11.74c4.87,4.83,8.05,11.601,7.82,21.07
				c-0.92,37.21-44.31,13.53-41.61,31.37c0.88,5.79,3.39,14.34,4.23,23.12c1.76,18.29-3.73,37.56-46.37,34.8"/>
			<path fill="none" stroke="#CECECD" d="M645.22,3035.61c0,0,50.54-18.101,101.08-24.13c28.47-3.391,56.95-2.95,76.38,6.729
				c14.66,7.3,24.17,19.85,24.65,39.97c2.26,94.15-101.05,169.15-101.05,169.15"/>
			<path fill="none" stroke="#CECECD" d="M1024.51,3149.83c0,0-13.96-119.14-79.53-112.07c-2.4,0.25-4.88,0.681-7.43,1.29
				c-71.96,17.28-75.96,76.28-57.97,110.78c17.99,34.5,2,77.5-47.98,77.5"/>
			<path fill="none" stroke="#CECECD" d="M822.68,3018.21c0,0,24.91-36.7,70.89-24.29s51.41,43.84,51.41,43.84"/>
			<path fill="none" stroke="#CECECD" d="M1026.51,3040.05c0,0-10.71-136.38-81.53-172.979c-13-6.721-28.04-10.08-45.41-8.601
				c-67.05,5.69-52.85,52.95-61.42,82.721c-1.42,4.899-3.44,9.319-6.55,13.01c-21.98,26.109-82.58,16.609-85.3,57.28
				c-0.01,0.029-0.01,0.05-0.01,0.079"/>
			<path fill="none" stroke="#CECECD" d="M919.77,2792.1c27.28,25.761,25.21,74.971,25.21,74.971"/>
			<path fill="none" stroke="#CECECD" d="M850.29,2802.32c18.97-16.2,40.57-28.601,59.27-17.84c3.79,2.18,7.18,4.75,10.21,7.609"/>
			<path fill="none" stroke="#CECECD" d="M738.73,2832.23c8.99-9.101,66.01-65.851,67.38-41.9c1.5,26-15.49,60,0,53
				c7.87-3.55,24.62-24.3,44.18-41"/>
			<path fill="none" stroke="#CECECD" d="M738.08,2832.89c0.12-0.13,0.27-0.279,0.44-0.439"/>
			<path fill="none" stroke="#CECECD" d="M1026.51,2802.33c0,0-22.99-91.63-64.97-74.82c-41.56,16.65-41.77,63.65-41.77,64.58
				c0,0.01,0,0.01,0,0.01"/>
			<path fill="none" stroke="#CECECD" d="M1026.51,2763.89c0,0-50.55-112.51-106.74-79.04c-55.8,33.261-69.3,116.36-69.48,117.471
				c0,0.01,0,0.01,0,0.01"/>
			<path fill="none" stroke="#CECECD" d="M847.37,2658.67c0,0,46.63-89.85,72.4-64.1c25.78,25.76,35.31,56.75,0,90.279"/>
			<path fill="none" stroke="#CECECD" d="M945.01,2459.33c0,0-32.23,90.05,28.13,116.52c49.01,21.5,53.62,53.25,53.62,64.42
				c0,2.591-0.25,4.08-0.25,4.08"/>
			<polygon fill="none" stroke="#CECECD" points="1027.26,3149.83 1027.26,3227.33 831.6,3227.33 746.28,3227.33 598.85,3227.33 
				345.56,3227.33 189.09,3227.33 113.19,3227.33 1.01,3227.33 1.01,3077.31 1.01,2974.1 1.01,2922.33 1.01,2812.89 1.01,2784.4 
				1.01,2753.17 1.01,2641.08 1.01,2583.41 1.01,2459 144.64,2459 192.22,2459 345.53,2459 378.52,2459 664.86,2459 729.33,2459 
				868.75,2459 945.01,2459 1027.26,2459 1027.26,2640.27 1027.26,2763.89 1027.26,2802.33 1027.26,3040.05 			"/>
		</g>
	</g>
</g>
</svg>
